<?xml version="1.0" encoding="iso-8859-1"?>
<!-- Generator: Adobe Illustrator 19.0.0, SVG Export Plug-In . SVG Version: 6.00 Build 0)  -->
<svg version="1.1" id="&#x421;&#x43B;&#x43E;&#x439;_1"
	 xmlns="http://www.w3.org/2000/svg" xmlns:xlink="http://www.w3.org/1999/xlink" x="0px" y="0px" viewBox="-387 264.5 66.9 66.8"
	 style="enable-background:new -387 264.5 66.9 66.8;" xml:space="preserve">
<style type="text/css">
	.st0{fill:#747c7f;}
	.st1{fill:#747c7f;stroke:#747c7f;stroke-miterlimit:10;}
</style>
<path id="round" class="st0" d="M-353.6,331.3c-18.4,0-33.4-15-33.4-33.4s15-33.4,33.4-33.4c3.6,0,7.2,0.6,10.6,1.7
	c1.5,0.5,2.3,2.1,1.8,3.6s-2.1,2.3-3.6,1.8c-2.8-1-5.8-1.4-8.8-1.4c-15.3-0.1-27.8,12.4-27.8,27.7c0,15.3,12.5,27.8,27.8,27.8
	c15.3,0,27.8-12.5,27.8-27.8c0-2.4-0.3-4.8-0.9-7.1c-0.4-1.5,0.5-3,2-3.4s3,0.5,3.4,2c0.7,2.8,1.1,5.7,1.1,8.6
	C-320.2,316.3-335.2,331.3-353.6,331.3z"/>
<path id="_x31_" class="st1" d="M-359.2,312.4h-5.5v-20.8c-2,1.9-4.4,3.3-7.1,4.2v-5c1.4-0.5,3-1.4,4.7-2.7c1.7-1.3,2.8-2.8,3.5-4.6
	h4.5v28.9H-359.2z"/>
<path id="_x38_" class="st1" d="M-350.9,296.8c-1.4-0.6-2.5-1.4-3.1-2.5c-0.6-1.1-1-2.2-1-3.5c0-2.1,0.7-3.9,2.2-5.3
	s3.6-2.1,6.4-2.1c2.7,0,4.9,0.7,6.4,2.1s2.3,3.2,2.3,5.3c0,1.3-0.3,2.5-1,3.6c-0.7,1-1.7,1.8-2.9,2.4c1.6,0.6,2.8,1.6,3.6,2.8
	c0.8,1.2,1.2,2.6,1.2,4.3c0,2.7-0.8,4.8-2.5,6.5c-1.7,1.7-3.9,2.5-6.8,2.5c-2.6,0-4.8-0.7-6.5-2.1c-2.1-1.6-3.1-3.8-3.1-6.7
	c0-1.6,0.4-3,1.2-4.3C-353.8,298.6-352.6,297.6-350.9,296.8z M-350.3,303.6c0,1.5,0.4,2.7,1.2,3.6c0.8,0.9,1.7,1.3,2.9,1.3
	c1.1,0,2.1-0.4,2.8-1.2c0.7-0.8,1.1-2,1.1-3.5c0-1.3-0.4-2.4-1.1-3.2c-0.8-0.8-1.7-1.2-2.9-1.2c-1.3,0-2.4,0.5-3,1.4
	C-350,301.5-350.3,302.5-350.3,303.6z M-349.8,291.3c0,1.1,0.3,2,0.9,2.6s1.4,0.9,2.5,0.9c1,0,1.9-0.3,2.5-0.9s0.9-1.5,0.9-2.6
	c0-1-0.3-1.9-0.9-2.5c-0.6-0.6-1.4-0.9-2.5-0.9s-1.9,0.3-2.5,0.9C-349.5,289.4-349.8,290.3-349.8,291.3z"/>
<path id="plus" class="st0" d="M-322.9,272.5h-3.5V269c0-1.6-1.3-2.8-2.8-2.8c-1.6,0-2.8,1.3-2.8,2.8v3.5h-3.5
	c-1.6,0-2.8,1.3-2.8,2.8s1.3,2.8,2.8,2.8h3.5v3.5c0,1.6,1.3,2.8,2.8,2.8c1.6,0,2.8-1.3,2.8-2.8v-3.5h3.5c1.6,0,2.8-1.3,2.8-2.8
	S-321.4,272.5-322.9,272.5z"/>
<g id="XMLID_16_">
</g>
<g id="XMLID_17_">
</g>
<g id="XMLID_18_">
</g>
<g id="XMLID_19_">
</g>
<g id="XMLID_20_">
</g>
<g id="XMLID_21_">
</g>
</svg>
