<?xml version="1.0" encoding="utf-8"?>
<!-- Generator: Adobe Illustrator 17.1.0, SVG Export Plug-In . SVG Version: 6.00 Build 0)  -->
<!DOCTYPE svg PUBLIC "-//W3C//DTD SVG 1.1//EN" "http://www.w3.org/Graphics/SVG/1.1/DTD/svg11.dtd">
<svg version="1.1" id="Layer_1" xmlns="http://www.w3.org/2000/svg" xmlns:xlink="http://www.w3.org/1999/xlink" x="0px" y="0px"
	 viewBox="0 21 240 198" enable-background="new 0 21 240 198" xml:space="preserve">
<path id="evolution-gaming_1_" fill="none" stroke="#1E2123" stroke-width="1.5" stroke-miterlimit="10" d="M11.6,87.5
	c4.9-2.6,10.4-4,15.9-3.9c8.4,0,16.7,3.7,22.3,9.9c0.8,0.9,1.6,1.8,2.2,2.9c3.8,5.3,5.9,11.7,6.3,18.2c-0.6,0-9,0.3-11.1,0.3
	c-5.3,0-10.5-1-15.4-2.9c-2.5-1-4.8-2.2-6.9-3.8c-2.8-2.1-5.1-4.7-6.9-7.6C15.3,96.5,13.6,92,11.6,87.5L11.6,87.5z M52.2,100.1
	c0,5.4-1.5,10.4-4,14.9c3-0.1,9.6-0.3,10.1-0.3c-0.4-6.5-2.5-12.9-6.3-18.2c0,0,0-0.1-0.1-0.1C52.1,97.5,52.2,98.8,52.2,100.1z
	 M42.7,117.4c4.4-0.8,15.6-0.1,15.6-0.1c-0.3,6.8-2.6,13.6-6.8,19.1c-3.6,4.7-8.6,8.3-14.2,10.2c-8.4,2.9-17.9,2-25.6-2.2
	c1.8-4.2,3.5-8.5,5.9-12.4c2.3-4,5.6-7.4,9.5-9.8C31.8,119.4,37.3,118,42.7,117.4L42.7,117.4z M46.9,117.1
	c-6,8.8-16.6,14.6-28.6,14.6c-0.2,0-0.3,0-0.5,0c-0.1,0.2-0.2,0.3-0.3,0.5c-2.4,3.9-4.1,8.2-5.9,12.4c7.7,4.2,17.3,5.1,25.6,2.2
	c5.6-1.9,10.7-5.5,14.2-10.2c4.2-5.5,6.4-12.3,6.8-19.1C58.3,117.4,51.9,116.9,46.9,117.1z M57,141.4c-0.8-0.5-1.9-0.7-2.9-0.5
	c-1.7,0.3-3.1,1.8-3.3,3.5c-0.2,1.5,0.5,3,1.7,3.8c1.3,1,3.3,1,4.6,0c1-0.7,1.7-1.9,1.8-3.1C59.1,143.7,58.3,142.2,57,141.4z
	 M58,145.7c-0.4,1.6-2,2.7-3.6,2.4c-1.5-0.2-2.7-1.6-2.7-3.1c-0.1-1.5,1.1-3,2.6-3.2c0.8-0.1,1.6,0,2.3,0.4
	C57.7,142.8,58.4,144.3,58,145.7z M55.8,145.3c0.7-0.4,1.1-1.3,0.6-2c-0.7-1-2-0.5-3-0.6c0,1.4,0,2.8,0,4.2c0.3,0,0.5,0,0.8,0
	c0-0.5,0-1,0-1.6c0.2,0,0.4,0,0.7,0c0.3,0.5,0.5,1,0.8,1.5c0.3,0,0.6,0,1,0C56.4,146.4,56.1,145.8,55.8,145.3z M54.2,144.7
	c0-0.4,0-0.9,0-1.3c0.5,0,1.4-0.1,1.5,0.7C55.7,144.8,54.8,144.7,54.2,144.7z M103.6,117.5c0.5,0,1,0,1.5,0
	c0.2,4.2,0.5,8.4,0.8,12.5c-0.5,0-1,0-1.4,0c-0.8-2.7-1.8-5.4-3.6-7.7c-1.5-1.9-3.8-3.2-6.3-3.2c-2.6-0.1-5.2,1.2-6.7,3.2
	c-1.8,2.5-2.6,5.7-2.7,8.7c0,2.9-0.2,5.8,0.7,8.5c0.7,2.1,1.7,4.3,3.5,5.7c2.2,1.6,5.2,1.8,7.7,1.1c2.1-0.6,3.8-2.3,4.4-4.3
	c0.7-1.8,0.4-3.8,0.4-5.7c0.1-0.7-0.5-1.3-1.2-1.4c-1.3-0.2-2.5-0.1-3.8-0.1c0-0.5,0-1,0-1.5c4.1,0,8.2,0,12.4,0c0,0.5,0,1,0,1.5
	c-0.8,0-1.6-0.1-2.4,0.3c-0.6,0.2-0.8,0.9-0.8,1.5c0,4,0,7.9,0,11.9c-0.5,0-1,0-1.4,0c-0.5-1.8-1-3.6-1.6-5.3
	c-1.4,2.4-3.6,4.3-6.4,4.9c-3.3,0.7-6.9,0-9.7-1.8c-2.6-1.5-4.5-3.9-5.8-6.6c-1.6-3.1-1.9-6.8-1.2-10.2c0.6-2.3,1.6-4.4,3.1-6.4
	c1.8-2.4,4.4-4.3,7.3-5.3c2.5-0.8,5.2-0.8,7.7,0.2c1.4,0.6,2.7,1.4,3.8,2.4C102.4,119.6,103,118.6,103.6,117.5L103.6,117.5z
	 M168.4,118.8c-0.8,0.4-1.5,1.2-1.5,2.1c-0.2,1.3,1,2.6,2.3,2.5c1.3,0.1,2.6-1.2,2.5-2.5C171.6,119.4,169.8,118.1,168.4,118.8
	L168.4,118.8z M223.1,128.2c0,1.3-1.2,2.4-2.5,2.3c-0.8,0-1.6-0.5-2-1.2c-0.2-0.5-0.3-1-0.7-1.3c-1.3,0.5-2.5,1.2-3.6,2.1
	c0.7,0.9,1.3,2,1.5,3.1c0.3,1.9-0.2,4.1-1.7,5.4c-1.1,1-2.4,1.7-3.8,2.1c-2.4,0.8-4.9,0-7.3,0.7c-1.1,0.3-1.7,1.6-1.1,2.6
	c0.5,0.8,1.6,0.8,2.4,0.8c2.5,0,5-0.2,7.5,0c1.8,0.2,3.9,0.7,5,2.3c1.4,2,0.8,5-0.9,6.6c-1.5,1.5-3.5,2.2-5.5,2.5
	c-2,0.3-4.1,0.3-6.2,0c-1.6-0.3-3.2-0.8-4.4-2c-0.7-0.6-1.1-1.5-1.1-2.4c0-1.1,0.7-2,1.5-2.6c1-0.7,2.1-1,3.2-1.2
	c-1.2-0.3-2.5-0.8-3.4-1.8c-1.1-1.2-1-3.2,0-4.4c0.8-0.9,1.9-1.4,3-1.8c-1-0.6-2-1.3-2.6-2.4c-1.2-1.8-1.2-4.3-0.2-6.2
	c0.8-1.5,2.2-2.6,3.7-3.2c3-1.2,6.6-0.8,9.3,1.1c1.3-1.2,2.8-2,4.4-2.8c0.9-0.4,1.9-0.9,3-0.8C222,125.7,223.2,126.8,223.1,128.2z
	 M212.1,134.2c0-1.6-0.4-3.2-1.6-4.3c-1.1-1.1-2.8-1.3-4.2-0.8c-1.6,0.6-2.6,2.2-2.8,3.8c-0.3,1.9,0,4.1,1.4,5.6
	c1.5,1.6,4.3,1.6,5.8,0C211.8,137.4,212.1,135.7,212.1,134.2z M198.3,146.3c0,0.5,0,1.1,0,1.6c-3,0-5.9,0-8.8,0c0-0.5-0.1-1.1,0-1.6
	c0.7,0,1.3,0,2-0.3c0.5-0.3,0.8-1,0.7-1.5c0-3,0-6,0-9c-0.1-1.6-0.3-3.3-1.5-4.4c-1-1-2.6-1.2-4-1c-1.5,0.3-2.7,1.3-3.5,2.6
	c-0.7,1.3-1,2.7-1,4.2c0,2.4,0,4.9,0,7.3c0,0.7,0.1,1.4,0.7,1.8c0.6,0.3,1.3,0.3,2,0.3c0,0.5,0,1.1,0,1.6c-10.2,0-20.4,0-30.7,0
	c0-0.5,0-1.1,0-1.6c0.8,0,1.7,0.1,2.5-0.3c0.6-0.3,0.8-1,0.8-1.6c0-3.2,0-6.3,0-9.5c0-1.5-0.3-3.1-1.6-4.1c-1.8-1.4-4.7-0.7-5.9,1.2
	c-0.7,1.1-1.2,2.4-1.4,3.7c0,3,0,5.9,0,8.9c0,0.6,0.2,1.2,0.8,1.5c0.8,0.3,1.7,0.2,2.5,0.2c0,0.5,0,1.1,0,1.6c-3.4,0-6.8,0-10.2,0
	c0-0.5,0-1.1,0-1.6c0.8,0,1.6,0.1,2.4-0.2c0.5-0.2,0.9-0.7,0.9-1.3c0-3.2,0-6.4,0-9.7c-0.1-1.5-0.3-3.1-1.5-4.1
	c-1.1-1-2.7-1-4.1-0.6c-0.8,0.3-1.5,0.9-2,1.6c-0.9,1.3-1.4,2.9-1.4,4.5c0,2.7,0,5.3,0,8c0,0.5,0.1,1.1,0.5,1.4
	c0.8,0.5,1.8,0.3,2.7,0.3c0,0.5,0,1.1,0,1.6c-4,0-8,0-12,0c-0.8-0.1-1.7-0.1-2.5-0.5c-0.9-0.5-1.3-1.5-1.6-2.5
	c-1.2,1.1-2.3,2.3-3.8,2.9c-1.7,0.7-3.7,0.8-5.5,0.4c-1.4-0.3-2.8-1-3.6-2.3c-0.9-1.5-0.7-3.5,0.3-5c0.9-1.3,2.3-2.2,3.7-2.9
	c2.8-1.3,5.8-1.9,8.7-2.3c0-1.1,0-2.3,0-3.4c-0.2-1.8-1.8-3.1-3.5-3.4c-1.5-0.2-3.1,0-4.4,0.8c-0.4,0.3-0.9,0.7-0.7,1.3
	c0.4,0.8,1.2,1.5,1.1,2.5c0,1.2-1.2,2.1-2.3,2c-1.5,0.1-2.7-1.4-2.5-2.8c0.2-2.2,2.2-3.8,4.1-4.6c2.3-0.9,4.9-1,7.4-0.5
	c1.8,0.4,3.4,1.6,4.1,3.3c0.3,0.8,0.3,1.6,0.3,2.4c0,3.4,0,6.8,0,10.2c0,0.9,0.3,2,1.3,2.5c0.9,0.3,1.9,0.2,2.8,0.2
	c0.7,0,1.5-0.3,1.7-1c0.1-0.4,0.1-0.9,0.1-1.3c0-4.1,0-8.3,0-12.4c0-0.7-0.2-1.3-0.8-1.7c-0.6-0.3-1.3-0.4-1.9-0.5c0-0.5,0-1,0-1.5
	c1.9,0,3.8-0.2,5.7-0.3c0.3,1.4,0.5,2.8,0.6,4.2c1.2-1.8,2.8-3.5,5-4c1.7-0.4,3.6-0.3,5,0.8c1.2,0.9,1.8,2.2,2.2,3.6
	c1.2-2.1,3.2-4,5.6-4.4c1.7-0.3,3.7-0.1,5,1.2c1.5,1.5,2.1,3.6,2.1,5.6c0,3.3,0,6.7,0,10c0,0.5,0.1,1,0.6,1.3
	c0.8,0.5,1.9,0.3,2.8,0.4c0.8,0,1.7,0.1,2.6-0.1c0.8-0.1,1.2-0.9,1.2-1.6c0-4.2,0-8.4,0-12.6c0-0.8-0.3-1.6-1-2
	c-0.8-0.4-1.6-0.4-2.5-0.4c0-0.5,0-1.1,0-1.6c2.4-0.1,4.8-0.1,7.1-0.3c0,5.3,0,10.6,0,15.9c0,0.7-0.1,1.5,0.3,2.2
	c0.4,0.2,0.8,0.4,1.3,0.4c1.2,0,2.5,0,3.7,0c0.8,0,1.7-0.6,1.7-1.5c0-4.3,0-8.5,0-12.8c0-0.8-0.3-1.7-1-2.1
	c-0.8-0.5-1.8-0.4-2.8-0.5c0.1-0.5-0.2-1.1,0.2-1.4c2.1-0.2,4.3-0.2,6.5-0.4c0.3,1.5,0.5,2.9,0.6,4.4c0.9-1.5,2.1-2.8,3.8-3.5
	c1.5-0.7,3.1-0.9,4.7-0.7c1.3,0.2,2.5,0.7,3.3,1.7c1.2,1.4,1.8,3.3,1.8,5.1c0,3.2,0,6.4,0,9.7c0,0.6,0.1,1.4,0.7,1.8
	C196.9,146.3,197.6,146.3,198.3,146.3z M122.9,137.4c-2.5,0.4-4.9,0.8-7.1,2.1c-1.1,0.7-2,1.8-2.1,3.1c-0.2,1.2,0,2.6,0.9,3.4
	c0.8,0.8,2,1,3.1,0.8c2.1-0.3,4-1.9,4.8-3.9C123.2,141.1,122.8,139.2,122.9,137.4z M205.6,148.2c-1.3,0.3-2.8,0.9-3.5,2.1
	c-0.6,1-0.4,2.5,0.6,3.3c1.1,0.9,2.5,1.2,3.8,1.3c2,0.1,4,0.1,5.9-0.7c1-0.5,2-1.2,2.5-2.2c0.5-1,0-2.3-0.8-3
	c-0.9-0.7-2.1-0.9-3.3-1C209.1,147.9,207.3,147.9,205.6,148.2L205.6,148.2z M130.6,84.4c0,0.5,0,1.1,0,1.6c1.1,0.1,2.3-0.2,3.4,0.4
	c0.6,0.3,0.9,1,0.9,1.6c0,7.6,0,15.1,0,22.6c0,0.7-0.2,1.4-0.9,1.6c-0.7,0.3-1.5,0.2-2.2,0.2c0,0.5,0,1,0,1.6c3.2,0,6.4,0,9.7,0
	c0-0.5,0-1.1,0-1.6c-0.8,0-1.7,0.2-2.4-0.3c-0.4-0.2-0.6-0.7-0.5-1.2c0-9,0-18,0-27C135.9,84.2,133.3,84.3,130.6,84.4L130.6,84.4z
	 M67.8,86c0.9,0,1.8-0.1,2.7,0.2c0.7,0.2,1,0.9,0.9,1.6c0,7.7,0,15.4,0,23.2c0,0.7-0.3,1.3-1,1.5c-0.8,0.2-1.6,0.2-2.4,0.2
	c-0.1,0-0.2,0.1-0.2,0.1c0,0.5,0,1,0,1.5c8.4,0,16.7,0,25.1,0c0.2-3.3,0.3-6.7,0.5-10c-0.5,0-1,0-1.6,0c-0.3,2.1-0.8,4.4-2.2,6.1
	c-1.2,1.4-3,2.1-4.7,2.3c-1.8,0.2-3.6,0.1-5.4,0.2c-0.9,0-1.7,0-2.6-0.1c-0.6-0.1-1-0.7-1-1.2c0-3.9,0-7.8,0-11.7
	c1.8,0,3.9-0.3,5.4,0.9c1.8,1.3,2,3.8,2.2,5.8c0.5,0,1,0,1.5,0c0-4.9,0-9.7,0-14.6c-0.5,0-1,0-1.5,0c-0.1,1.3-0.2,2.6-0.8,3.8
	c-0.7,1.3-1.9,2.3-3.4,2.5c-1.2,0.1-2.3,0-3.4,0.1c0-3.5,0-7,0-10.5c-0.1-0.8,0.5-1.5,1.3-1.5c2.7,0,5.5,0,8.2,0
	c1.4,0,3,0.2,3.9,1.4c1.2,1.4,1.2,3.4,1.6,5.1c0.5,0,1,0,1.5,0c-0.3-2.7-0.4-5.4-0.7-8.1c-8,0-16,0-24.1,0
	C67.8,84.9,67.8,85.5,67.8,86L67.8,86z M183.5,85.1c-0.8,0.4-1.4,1.2-1.4,2.1c0,1.3,1.2,2.6,2.6,2.5c1.4,0,2.5-1.5,2.2-2.9
	C186.6,85.3,184.9,84.4,183.5,85.1L183.5,85.1z M169.7,86.2c-0.1,2.4-0.6,4.9-2.2,6.9c-0.8,1-2.1,1.5-3.4,1.7c0,0.5,0,1,0,1.5
	c1.2,0,2.3,0,3.5,0c0,4.4,0,8.9,0,13.4c0,1.2,0.4,2.5,1.3,3.4c1.1,1.2,2.8,1.5,4.3,1.5c1.9,0,3.7-1.1,4.6-2.8
	c0.9-1.5,1.2-3.3,1.2-5.1c-0.5,0-1,0-1.5,0c0,1.3-0.2,2.6-0.8,3.8c-0.5,0.9-1.2,1.6-2.2,1.8c-1,0.2-2-0.1-2.6-0.8
	c-0.6-0.7-0.7-1.7-0.8-2.6c0-4.2,0-8.4,0-12.7c3,0,6,0,9,0c0.8,0,1.7,0,2.4,0.5c0.6,0.4,0.8,1.2,0.8,1.9c0,4,0,8,0,12
	c0,0.6-0.2,1.3-0.8,1.6c-0.7,0.3-1.5,0.2-2.3,0.2c0,0.5,0,1.1,0,1.6c3.2,0,6.5,0,9.7,0c0-0.5,0-1.1,0-1.6c-0.7,0-1.3,0-2-0.1
	c-0.4-0.1-0.9-0.4-1-0.8c-0.1-0.5-0.1-1-0.1-1.5c0-5.4,0-10.7,0-16.1c-5.3,0.2-10.5,0.3-15.8,0.2c0-2.7,0-5.4,0-8.1
	C170.7,86.2,170.2,86.2,169.7,86.2L169.7,86.2z M209.5,94.2c-0.2,0-0.5-0.1-0.6,0.2c0,0.4,0,0.8,0,1.3c1,0,2.1-0.1,2.9,0.5
	c0.7,0.5,0.8,1.5,0.8,2.3c0,4.1,0,8.2,0,12.2c0,0.5,0,1-0.4,1.3c-0.6,0.6-1.5,0.5-2.3,0.6c0,0.5,0,1,0,1.6c3,0,5.9,0,8.9,0
	c0-0.5,0-1,0-1.6c-0.7,0-1.4,0-2-0.3c-0.6-0.3-0.7-1.1-0.7-1.7c0-2.6,0-5.2,0-7.8c0.1-1.9,0.7-3.8,2.1-5.1c1.4-1.3,3.5-1.7,5.3-1
	c1.1,0.5,1.8,1.5,2.2,2.6c0.3,1.1,0.4,2.3,0.4,3.5c0,2.7,0,5.4,0,8c0,0.5-0.2,1.2-0.6,1.5c-0.6,0.4-1.3,0.3-2.1,0.3
	c0,0.5,0,1.1,0,1.6c3,0,5.9,0,8.9,0c0-0.5,0-1,0-1.6c-0.7-0.1-1.4,0-2-0.3c-0.6-0.3-0.7-1.1-0.7-1.7c0-3.2,0-6.4,0-9.7
	c0-1.7-0.5-3.5-1.5-4.9c-0.7-0.9-1.7-1.5-2.8-1.8c-2.2-0.6-4.8-0.2-6.6,1.2c-1,0.8-1.9,1.8-2.6,2.8c-0.1-1.5-0.3-2.9-0.6-4.3
	C213.6,94,211.5,94.1,209.5,94.2L209.5,94.2z M148.6,93.9c-2.3,0.2-4.7,0.3-7,0.3c0,0.5,0,1,0,1.5c0.8,0,1.6,0,2.3,0.3
	c0.7,0.3,1.2,1.1,1.2,1.8c0,3,0,5.9,0,8.9c0,1.4,0.2,2.9,0.8,4.2c0.5,1.1,1.4,2,2.4,2.6c1.8,1,4.2,1,6.1,0.2
	c1.7-0.8,3.1-2.1,4.4-3.5c0.1,1.3,0.3,2.5,0.3,3.8c2.2,0.1,4.5-0.1,6.7-0.1c0-0.5,0-1,0-1.5c-1,0-2.2,0.2-3-0.6
	c-0.7-0.7-0.7-1.6-0.7-2.5c0-5.2,0-10.4,0-15.6c-2.3,0.2-4.6,0.3-7,0.4c0,0.5,0,1,0,1.5c0.8,0,1.7,0.1,2.5,0.4
	c0.7,0.3,1.1,1,1.1,1.7c0,2.6,0,5.1,0,7.7c0,2-0.8,4-2.3,5.3c-1,0.9-2.5,1.3-3.8,1.2c-1.4-0.1-2.6-1-3.2-2.1
	c-0.6-1.1-0.7-2.4-0.6-3.6C148.6,102.2,148.6,98,148.6,93.9L148.6,93.9z M91.4,94.2c0,0.5-0.1,1-0.1,1.5c1,0.2,2,0.1,2.9,0.4
	c0.8,0.4,1.1,1.3,1.5,2c2.5,5.6,5,11.2,7.6,16.7c0.4,0,0.8,0,1.2,0c2.3-5.4,4.7-10.8,7-16.2c0.3-0.7,0.6-1.5,1.3-2
	c0.6-0.5,1.4-0.7,2.1-0.8c0-0.5,0-1,0-1.5c-2.7,0-5.5,0-8.2,0c0,0.5,0,1,0,1.5c0.9,0.2,2,0.3,2.6,1c0.4,0.4,0.5,1.1,0.2,1.6
	c-1.6,3.8-3.2,7.5-4.8,11.3c-1.6-3.6-3.3-7.2-4.9-10.8c-0.3-0.7-0.8-1.5-0.5-2.3c0.7-0.9,2-0.6,2.9-0.8c0-0.5,0-1,0-1.5
	C98.6,94.2,95,94.2,91.4,94.2L91.4,94.2z M130.5,110.1c-2,3.5-6.5,5.4-10.4,4.4c-3-0.8-5.4-3.2-6.4-6.1c-0.5-1.5-0.7-3.2-0.6-4.8
	c0-2.5,0.9-5,2.6-6.9c1.2-1.4,2.8-2.4,4.6-2.8c2.5-0.5,5.3-0.2,7.4,1.3c2.2,1.5,3.7,3.9,4.1,6.6
	C132.2,104.6,131.9,107.6,130.5,110.1z M127.9,102.5c-0.1-1.6-0.3-3.1-1-4.6c-0.7-1.4-2.1-2.5-3.6-2.7c-0.8-0.1-1.7-0.1-2.5,0.2
	c-1.2,0.5-2.1,1.5-2.7,2.6c-0.8,1.7-1,3.6-1.1,5.6c0,2.1,0.1,4.3,0.9,6.3c0.6,1.5,1.8,2.9,3.5,3.3c1.1,0.2,2.2,0.1,3.2-0.4
	c1.4-0.7,2.3-2.1,2.7-3.6C128,107,128,104.7,127.9,102.5z M207.1,111.3c-2.2,2.7-6,4-9.4,3.1c-2.7-0.6-4.9-2.6-6.1-5.1
	c-1.2-2.5-1.3-5.3-0.8-7.9c0.7-3.9,3.9-7.4,7.9-7.8c2.1-0.2,4.4,0.2,6.2,1.4c2.4,1.5,3.9,4.2,4.3,7
	C209.7,105.3,209.2,108.8,207.1,111.3z M204.6,98.5c-0.6-1.5-2-2.9-3.7-3.1c-0.9-0.1-1.8-0.1-2.6,0.2c-1.8,0.7-2.9,2.5-3.3,4.4
	c-0.6,2.5-0.6,5.1-0.2,7.6c0.3,1.8,0.9,3.6,2.3,4.8c1.2,1,3,1.3,4.5,0.7c1.4-0.5,2.5-1.8,3-3.1c0.6-1.5,0.8-3.1,0.8-4.8
	C205.5,102.8,205.5,100.5,204.6,98.5z"/>
<g id="evolution-gaming">
	<g id="leafs">
		
			<radialGradient id="XMLID_6_" cx="116.656" cy="-20.9337" r="66.1916" gradientTransform="matrix(0.3 0 0 -0.3 -7.629395e-006 93)" gradientUnits="userSpaceOnUse">
			<stop  offset="0" style="stop-color:#A8A8A8"/>
			<stop  offset="0.3834" style="stop-color:#9E9E9E"/>
			<stop  offset="1" style="stop-color:#707070"/>
		</radialGradient>
		<path id="XMLID_2348_" fill="url(#XMLID_6_)" d="M11.6,87.5c4.9-2.6,10.4-4,15.9-3.9c8.4,0,16.7,3.7,22.3,9.9
			c0.8,0.9,1.6,1.8,2.2,2.9c3.8,5.3,5.9,11.7,6.3,18.2c-0.6,0-9,0.3-11.1,0.3c-5.3,0-10.5-1-15.4-2.9c-2.5-1-4.8-2.2-6.9-3.8
			c-2.8-2.1-5.1-4.7-6.9-7.6C15.3,96.5,13.6,92,11.6,87.5L11.6,87.5z"/>
		
			<linearGradient id="XMLID_7_" gradientUnits="userSpaceOnUse" x1="177.5491" y1="-73.1477" x2="177.5491" y2="-10.9129" gradientTransform="matrix(0.3 0 0 -0.3 -7.629395e-006 93)">
			<stop  offset="0" style="stop-color:#C9C9C9"/>
			<stop  offset="1" style="stop-color:#D3D3D3"/>
		</linearGradient>
		<path id="XMLID_2347_" fill="url(#XMLID_7_)" d="M52.2,100.1c0,5.4-1.5,10.4-4,14.9c3-0.1,9.6-0.3,10.1-0.3
			c-0.4-6.5-2.5-12.9-6.3-18.2c0,0,0-0.1-0.1-0.1C52.1,97.5,52.2,98.8,52.2,100.1z"/>
		
			<radialGradient id="XMLID_8_" cx="116.72" cy="-132.4302" r="66.2259" gradientTransform="matrix(0.3 0 0 -0.3 -7.629395e-006 93)" gradientUnits="userSpaceOnUse">
			<stop  offset="0.1316" style="stop-color:#A3A3A3"/>
			<stop  offset="0.812" style="stop-color:#9B9C9C"/>
		</radialGradient>
		<path id="XMLID_2346_" fill="url(#XMLID_8_)" d="M42.7,117.4c4.4-0.8,15.6-0.1,15.6-0.1c-0.3,6.8-2.6,13.6-6.8,19.1
			c-3.6,4.7-8.6,8.3-14.2,10.2c-8.4,2.9-17.9,2-25.6-2.2c1.8-4.2,3.5-8.5,5.9-12.4c2.3-4,5.6-7.4,9.5-9.8
			C31.8,119.4,37.3,118,42.7,117.4L42.7,117.4z"/>
		
			<linearGradient id="XMLID_9_" gradientUnits="userSpaceOnUse" x1="116.72" y1="-184.5979" x2="116.72" y2="-80.0715" gradientTransform="matrix(0.3 0 0 -0.3 -7.629395e-006 93)">
			<stop  offset="0" style="stop-color:#A2A2A1"/>
			<stop  offset="1" style="stop-color:#C4C4C4"/>
		</linearGradient>
		<path id="XMLID_2345_" fill="url(#XMLID_9_)" d="M46.9,117.1c-6,8.8-16.6,14.6-28.6,14.6c-0.2,0-0.3,0-0.5,0
			c-0.1,0.2-0.2,0.3-0.3,0.5c-2.4,3.9-4.1,8.2-5.9,12.4c7.7,4.2,17.3,5.1,25.6,2.2c5.6-1.9,10.7-5.5,14.2-10.2
			c4.2-5.5,6.4-12.3,6.8-19.1C58.3,117.4,51.9,116.9,46.9,117.1z"/>
	</g>
	<path id="rights" fill="#AAAAAA" d="M57,141.4c-0.8-0.5-1.9-0.7-2.9-0.5c-1.7,0.3-3.1,1.8-3.3,3.5c-0.2,1.5,0.5,3,1.7,3.8
		c1.3,1,3.3,1,4.6,0c1-0.7,1.7-1.9,1.8-3.1C59.1,143.7,58.3,142.2,57,141.4z M58,145.7c-0.4,1.6-2,2.7-3.6,2.4
		c-1.5-0.2-2.7-1.6-2.7-3.1c-0.1-1.5,1.1-3,2.6-3.2c0.8-0.1,1.6,0,2.3,0.4C57.7,142.8,58.4,144.3,58,145.7z M55.8,145.3
		c0.7-0.4,1.1-1.3,0.6-2c-0.7-1-2-0.5-3-0.6c0,1.4,0,2.8,0,4.2c0.3,0,0.5,0,0.8,0c0-0.5,0-1,0-1.6c0.2,0,0.4,0,0.7,0
		c0.3,0.5,0.5,1,0.8,1.5c0.3,0,0.6,0,1,0C56.4,146.4,56.1,145.8,55.8,145.3z M54.2,144.7c0-0.4,0-0.9,0-1.3c0.5,0,1.4-0.1,1.5,0.7
		C55.7,144.8,54.8,144.7,54.2,144.7z"/>
	<path fill="#E3E3E3" d="M103.6,117.5c0.5,0,1,0,1.5,0c0.2,4.2,0.5,8.4,0.8,12.5c-0.5,0-1,0-1.4,0c-0.8-2.7-1.8-5.4-3.6-7.7
		c-1.5-1.9-3.8-3.2-6.3-3.2c-2.6-0.1-5.2,1.2-6.7,3.2c-1.8,2.5-2.6,5.7-2.7,8.7c0,2.9-0.2,5.8,0.7,8.5c0.7,2.1,1.7,4.3,3.5,5.7
		c2.2,1.6,5.2,1.8,7.7,1.1c2.1-0.6,3.8-2.3,4.4-4.3c0.7-1.8,0.4-3.8,0.4-5.7c0.1-0.7-0.5-1.3-1.2-1.4c-1.3-0.2-2.5-0.1-3.8-0.1
		c0-0.5,0-1,0-1.5c4.1,0,8.2,0,12.4,0c0,0.5,0,1,0,1.5c-0.8,0-1.6-0.1-2.4,0.3c-0.6,0.2-0.8,0.9-0.8,1.5c0,4,0,7.9,0,11.9
		c-0.5,0-1,0-1.4,0c-0.5-1.8-1-3.6-1.6-5.3c-1.4,2.4-3.6,4.3-6.4,4.9c-3.3,0.7-6.9,0-9.7-1.8c-2.6-1.5-4.5-3.9-5.8-6.6
		c-1.6-3.1-1.9-6.8-1.2-10.2c0.6-2.3,1.6-4.4,3.1-6.4c1.8-2.4,4.4-4.3,7.3-5.3c2.5-0.8,5.2-0.8,7.7,0.2c1.4,0.6,2.7,1.4,3.8,2.4
		C102.4,119.6,103,118.6,103.6,117.5L103.6,117.5z M168.4,118.8c-0.8,0.4-1.5,1.2-1.5,2.1c-0.2,1.3,1,2.6,2.3,2.5
		c1.3,0.1,2.6-1.2,2.5-2.5C171.6,119.4,169.8,118.1,168.4,118.8L168.4,118.8z M223.1,128.2c0,1.3-1.2,2.4-2.5,2.3
		c-0.8,0-1.6-0.5-2-1.2c-0.2-0.5-0.3-1-0.7-1.3c-1.3,0.5-2.5,1.2-3.6,2.1c0.7,0.9,1.3,2,1.5,3.1c0.3,1.9-0.2,4.1-1.7,5.4
		c-1.1,1-2.4,1.7-3.8,2.1c-2.4,0.8-4.9,0-7.3,0.7c-1.1,0.3-1.7,1.6-1.1,2.6c0.5,0.8,1.6,0.8,2.4,0.8c2.5,0,5-0.2,7.5,0
		c1.8,0.2,3.9,0.7,5,2.3c1.4,2,0.8,5-0.9,6.6c-1.5,1.5-3.5,2.2-5.5,2.5c-2,0.3-4.1,0.3-6.2,0c-1.6-0.3-3.2-0.8-4.4-2
		c-0.7-0.6-1.1-1.5-1.1-2.4c0-1.1,0.7-2,1.5-2.6c1-0.7,2.1-1,3.2-1.2c-1.2-0.3-2.5-0.8-3.4-1.8c-1.1-1.2-1-3.2,0-4.4
		c0.8-0.9,1.9-1.4,3-1.8c-1-0.6-2-1.3-2.6-2.4c-1.2-1.8-1.2-4.3-0.2-6.2c0.8-1.5,2.2-2.6,3.7-3.2c3-1.2,6.6-0.8,9.3,1.1
		c1.3-1.2,2.8-2,4.4-2.8c0.9-0.4,1.9-0.9,3-0.8C222,125.7,223.2,126.8,223.1,128.2z M212.1,134.2c0-1.6-0.4-3.2-1.6-4.3
		c-1.1-1.1-2.8-1.3-4.2-0.8c-1.6,0.6-2.6,2.2-2.8,3.8c-0.3,1.9,0,4.1,1.4,5.6c1.5,1.6,4.3,1.6,5.8,0
		C211.8,137.4,212.1,135.7,212.1,134.2z M198.3,146.3c0,0.5,0,1.1,0,1.6c-3,0-5.9,0-8.8,0c0-0.5-0.1-1.1,0-1.6c0.7,0,1.3,0,2-0.3
		c0.5-0.3,0.8-1,0.7-1.5c0-3,0-6,0-9c-0.1-1.6-0.3-3.3-1.5-4.4c-1-1-2.6-1.2-4-1c-1.5,0.3-2.7,1.3-3.5,2.6c-0.7,1.3-1,2.7-1,4.2
		c0,2.4,0,4.9,0,7.3c0,0.7,0.1,1.4,0.7,1.8c0.6,0.3,1.3,0.3,2,0.3c0,0.5,0,1.1,0,1.6c-10.2,0-20.4,0-30.7,0c0-0.5,0-1.1,0-1.6
		c0.8,0,1.7,0.1,2.5-0.3c0.6-0.3,0.8-1,0.8-1.6c0-3.2,0-6.3,0-9.5c0-1.5-0.3-3.1-1.6-4.1c-1.8-1.4-4.7-0.7-5.9,1.2
		c-0.7,1.1-1.2,2.4-1.4,3.7c0,3,0,5.9,0,8.9c0,0.6,0.2,1.2,0.8,1.5c0.8,0.3,1.7,0.2,2.5,0.2c0,0.5,0,1.1,0,1.6c-3.4,0-6.8,0-10.2,0
		c0-0.5,0-1.1,0-1.6c0.8,0,1.6,0.1,2.4-0.2c0.5-0.2,0.9-0.7,0.9-1.3c0-3.2,0-6.4,0-9.7c-0.1-1.5-0.3-3.1-1.5-4.1
		c-1.1-1-2.7-1-4.1-0.6c-0.8,0.3-1.5,0.9-2,1.6c-0.9,1.3-1.4,2.9-1.4,4.5c0,2.7,0,5.3,0,8c0,0.5,0.1,1.1,0.5,1.4
		c0.8,0.5,1.8,0.3,2.7,0.3c0,0.5,0,1.1,0,1.6c-4,0-8,0-12,0c-0.8-0.1-1.7-0.1-2.5-0.5c-0.9-0.5-1.3-1.5-1.6-2.5
		c-1.2,1.1-2.3,2.3-3.8,2.9c-1.7,0.7-3.7,0.8-5.5,0.4c-1.4-0.3-2.8-1-3.6-2.3c-0.9-1.5-0.7-3.5,0.3-5c0.9-1.3,2.3-2.2,3.7-2.9
		c2.8-1.3,5.8-1.9,8.7-2.3c0-1.1,0-2.3,0-3.4c-0.2-1.8-1.8-3.1-3.5-3.4c-1.5-0.2-3.1,0-4.4,0.8c-0.4,0.3-0.9,0.7-0.7,1.3
		c0.4,0.8,1.2,1.5,1.1,2.5c0,1.2-1.2,2.1-2.3,2c-1.5,0.1-2.7-1.4-2.5-2.8c0.2-2.2,2.2-3.8,4.1-4.6c2.3-0.9,4.9-1,7.4-0.5
		c1.8,0.4,3.4,1.6,4.1,3.3c0.3,0.8,0.3,1.6,0.3,2.4c0,3.4,0,6.8,0,10.2c0,0.9,0.3,2,1.3,2.5c0.9,0.3,1.9,0.2,2.8,0.2
		c0.7,0,1.5-0.3,1.7-1c0.1-0.4,0.1-0.9,0.1-1.3c0-4.1,0-8.3,0-12.4c0-0.7-0.2-1.3-0.8-1.7c-0.6-0.3-1.3-0.4-1.9-0.5c0-0.5,0-1,0-1.5
		c1.9,0,3.8-0.2,5.7-0.3c0.3,1.4,0.5,2.8,0.6,4.2c1.2-1.8,2.8-3.5,5-4c1.7-0.4,3.6-0.3,5,0.8c1.2,0.9,1.8,2.2,2.2,3.6
		c1.2-2.1,3.2-4,5.6-4.4c1.7-0.3,3.7-0.1,5,1.2c1.5,1.5,2.1,3.6,2.1,5.6c0,3.3,0,6.7,0,10c0,0.5,0.1,1,0.6,1.3
		c0.8,0.5,1.9,0.3,2.8,0.4c0.8,0,1.7,0.1,2.6-0.1c0.8-0.1,1.2-0.9,1.2-1.6c0-4.2,0-8.4,0-12.6c0-0.8-0.3-1.6-1-2
		c-0.8-0.4-1.6-0.4-2.5-0.4c0-0.5,0-1.1,0-1.6c2.4-0.1,4.8-0.1,7.1-0.3c0,5.3,0,10.6,0,15.9c0,0.7-0.1,1.5,0.3,2.2
		c0.4,0.2,0.8,0.4,1.3,0.4c1.2,0,2.5,0,3.7,0c0.8,0,1.7-0.6,1.7-1.5c0-4.3,0-8.5,0-12.8c0-0.8-0.3-1.7-1-2.1
		c-0.8-0.5-1.8-0.4-2.8-0.5c0.1-0.5-0.2-1.1,0.2-1.4c2.1-0.2,4.3-0.2,6.5-0.4c0.3,1.5,0.5,2.9,0.6,4.4c0.9-1.5,2.1-2.8,3.8-3.5
		c1.5-0.7,3.1-0.9,4.7-0.7c1.3,0.2,2.5,0.7,3.3,1.7c1.2,1.4,1.8,3.3,1.8,5.1c0,3.2,0,6.4,0,9.7c0,0.6,0.1,1.4,0.7,1.8
		C196.9,146.3,197.6,146.3,198.3,146.3z M122.9,137.4c-2.5,0.4-4.9,0.8-7.1,2.1c-1.1,0.7-2,1.8-2.1,3.1c-0.2,1.2,0,2.6,0.9,3.4
		c0.8,0.8,2,1,3.1,0.8c2.1-0.3,4-1.9,4.8-3.9C123.2,141.1,122.8,139.2,122.9,137.4z M205.6,148.2c-1.3,0.3-2.8,0.9-3.5,2.1
		c-0.6,1-0.4,2.5,0.6,3.3c1.1,0.9,2.5,1.2,3.8,1.3c2,0.1,4,0.1,5.9-0.7c1-0.5,2-1.2,2.5-2.2c0.5-1,0-2.3-0.8-3
		c-0.9-0.7-2.1-0.9-3.3-1C209.1,147.9,207.3,147.9,205.6,148.2L205.6,148.2z M130.6,84.4c0,0.5,0,1.1,0,1.6c1.1,0.1,2.3-0.2,3.4,0.4
		c0.6,0.3,0.9,1,0.9,1.6c0,7.6,0,15.1,0,22.6c0,0.7-0.2,1.4-0.9,1.6c-0.7,0.3-1.5,0.2-2.2,0.2c0,0.5,0,1,0,1.6c3.2,0,6.4,0,9.7,0
		c0-0.5,0-1.1,0-1.6c-0.8,0-1.7,0.2-2.4-0.3c-0.4-0.2-0.6-0.7-0.5-1.2c0-9,0-18,0-27C135.9,84.2,133.3,84.3,130.6,84.4L130.6,84.4z
		 M67.8,86c0.9,0,1.8-0.1,2.7,0.2c0.7,0.2,1,0.9,0.9,1.6c0,7.7,0,15.4,0,23.2c0,0.7-0.3,1.3-1,1.5c-0.8,0.2-1.6,0.2-2.4,0.2
		c-0.1,0-0.2,0.1-0.2,0.1c0,0.5,0,1,0,1.5c8.4,0,16.7,0,25.1,0c0.2-3.3,0.3-6.7,0.5-10c-0.5,0-1,0-1.6,0c-0.3,2.1-0.8,4.4-2.2,6.1
		c-1.2,1.4-3,2.1-4.7,2.3c-1.8,0.2-3.6,0.1-5.4,0.2c-0.9,0-1.7,0-2.6-0.1c-0.6-0.1-1-0.7-1-1.2c0-3.9,0-7.8,0-11.7
		c1.8,0,3.9-0.3,5.4,0.9c1.8,1.3,2,3.8,2.2,5.8c0.5,0,1,0,1.5,0c0-4.9,0-9.7,0-14.6c-0.5,0-1,0-1.5,0c-0.1,1.3-0.2,2.6-0.8,3.8
		c-0.7,1.3-1.9,2.3-3.4,2.5c-1.2,0.1-2.3,0-3.4,0.1c0-3.5,0-7,0-10.5c-0.1-0.8,0.5-1.5,1.3-1.5c2.7,0,5.5,0,8.2,0
		c1.4,0,3,0.2,3.9,1.4c1.2,1.4,1.2,3.4,1.6,5.1c0.5,0,1,0,1.5,0c-0.3-2.7-0.4-5.4-0.7-8.1c-8,0-16,0-24.1,0
		C67.8,84.9,67.8,85.5,67.8,86L67.8,86z M183.5,85.1c-0.8,0.4-1.4,1.2-1.4,2.1c0,1.3,1.2,2.6,2.6,2.5c1.4,0,2.5-1.5,2.2-2.9
		C186.6,85.3,184.9,84.4,183.5,85.1L183.5,85.1z M169.7,86.2c-0.1,2.4-0.6,4.9-2.2,6.9c-0.8,1-2.1,1.5-3.4,1.7c0,0.5,0,1,0,1.5
		c1.2,0,2.3,0,3.5,0c0,4.4,0,8.9,0,13.4c0,1.2,0.4,2.5,1.3,3.4c1.1,1.2,2.8,1.5,4.3,1.5c1.9,0,3.7-1.1,4.6-2.8
		c0.9-1.5,1.2-3.3,1.2-5.1c-0.5,0-1,0-1.5,0c0,1.3-0.2,2.6-0.8,3.8c-0.5,0.9-1.2,1.6-2.2,1.8c-1,0.2-2-0.1-2.6-0.8
		c-0.6-0.7-0.7-1.7-0.8-2.6c0-4.2,0-8.4,0-12.7c3,0,6,0,9,0c0.8,0,1.7,0,2.4,0.5c0.6,0.4,0.8,1.2,0.8,1.9c0,4,0,8,0,12
		c0,0.6-0.2,1.3-0.8,1.6c-0.7,0.3-1.5,0.2-2.3,0.2c0,0.5,0,1.1,0,1.6c3.2,0,6.5,0,9.7,0c0-0.5,0-1.1,0-1.6c-0.7,0-1.3,0-2-0.1
		c-0.4-0.1-0.9-0.4-1-0.8c-0.1-0.5-0.1-1-0.1-1.5c0-5.4,0-10.7,0-16.1c-5.3,0.2-10.5,0.3-15.8,0.2c0-2.7,0-5.4,0-8.1
		C170.7,86.2,170.2,86.2,169.7,86.2L169.7,86.2z M209.5,94.2c-0.2,0-0.5-0.1-0.6,0.2c0,0.4,0,0.8,0,1.3c1,0,2.1-0.1,2.9,0.5
		c0.7,0.5,0.8,1.5,0.8,2.3c0,4.1,0,8.2,0,12.2c0,0.5,0,1-0.4,1.3c-0.6,0.6-1.5,0.5-2.3,0.6c0,0.5,0,1,0,1.6c3,0,5.9,0,8.9,0
		c0-0.5,0-1,0-1.6c-0.7,0-1.4,0-2-0.3c-0.6-0.3-0.7-1.1-0.7-1.7c0-2.6,0-5.2,0-7.8c0.1-1.9,0.7-3.8,2.1-5.1c1.4-1.3,3.5-1.7,5.3-1
		c1.1,0.5,1.8,1.5,2.2,2.6c0.3,1.1,0.4,2.3,0.4,3.5c0,2.7,0,5.4,0,8c0,0.5-0.2,1.2-0.6,1.5c-0.6,0.4-1.3,0.3-2.1,0.3
		c0,0.5,0,1.1,0,1.6c3,0,5.9,0,8.9,0c0-0.5,0-1,0-1.6c-0.7-0.1-1.4,0-2-0.3c-0.6-0.3-0.7-1.1-0.7-1.7c0-3.2,0-6.4,0-9.7
		c0-1.7-0.5-3.5-1.5-4.9c-0.7-0.9-1.7-1.5-2.8-1.8c-2.2-0.6-4.8-0.2-6.6,1.2c-1,0.8-1.9,1.8-2.6,2.8c-0.1-1.5-0.3-2.9-0.6-4.3
		C213.6,94,211.5,94.1,209.5,94.2L209.5,94.2z M148.6,93.9c-2.3,0.2-4.7,0.3-7,0.3c0,0.5,0,1,0,1.5c0.8,0,1.6,0,2.3,0.3
		c0.7,0.3,1.2,1.1,1.2,1.8c0,3,0,5.9,0,8.9c0,1.4,0.2,2.9,0.8,4.2c0.5,1.1,1.4,2,2.4,2.6c1.8,1,4.2,1,6.1,0.2
		c1.7-0.8,3.1-2.1,4.4-3.5c0.1,1.3,0.3,2.5,0.3,3.8c2.2,0.1,4.5-0.1,6.7-0.1c0-0.5,0-1,0-1.5c-1,0-2.2,0.2-3-0.6
		c-0.7-0.7-0.7-1.6-0.7-2.5c0-5.2,0-10.4,0-15.6c-2.3,0.2-4.6,0.3-7,0.4c0,0.5,0,1,0,1.5c0.8,0,1.7,0.1,2.5,0.4
		c0.7,0.3,1.1,1,1.1,1.7c0,2.6,0,5.1,0,7.7c0,2-0.8,4-2.3,5.3c-1,0.9-2.5,1.3-3.8,1.2c-1.4-0.1-2.6-1-3.2-2.1
		c-0.6-1.1-0.7-2.4-0.6-3.6C148.6,102.2,148.6,98,148.6,93.9L148.6,93.9z M91.4,94.2c0,0.5-0.1,1-0.1,1.5c1,0.2,2,0.1,2.9,0.4
		c0.8,0.4,1.1,1.3,1.5,2c2.5,5.6,5,11.2,7.6,16.7c0.4,0,0.8,0,1.2,0c2.3-5.4,4.7-10.8,7-16.2c0.3-0.7,0.6-1.5,1.3-2
		c0.6-0.5,1.4-0.7,2.1-0.8c0-0.5,0-1,0-1.5c-2.7,0-5.5,0-8.2,0c0,0.5,0,1,0,1.5c0.9,0.2,2,0.3,2.6,1c0.4,0.4,0.5,1.1,0.2,1.6
		c-1.6,3.8-3.2,7.5-4.8,11.3c-1.6-3.6-3.3-7.2-4.9-10.8c-0.3-0.7-0.8-1.5-0.5-2.3c0.7-0.9,2-0.6,2.9-0.8c0-0.5,0-1,0-1.5
		C98.6,94.2,95,94.2,91.4,94.2L91.4,94.2z M130.5,110.1c-2,3.5-6.5,5.4-10.4,4.4c-3-0.8-5.4-3.2-6.4-6.1c-0.5-1.5-0.7-3.2-0.6-4.8
		c0-2.5,0.9-5,2.6-6.9c1.2-1.4,2.8-2.4,4.6-2.8c2.5-0.5,5.3-0.2,7.4,1.3c2.2,1.5,3.7,3.9,4.1,6.6
		C132.2,104.6,131.9,107.6,130.5,110.1z M127.9,102.5c-0.1-1.6-0.3-3.1-1-4.6c-0.7-1.4-2.1-2.5-3.6-2.7c-0.8-0.1-1.7-0.1-2.5,0.2
		c-1.2,0.5-2.1,1.5-2.7,2.6c-0.8,1.7-1,3.6-1.1,5.6c0,2.1,0.1,4.3,0.9,6.3c0.6,1.5,1.8,2.9,3.5,3.3c1.1,0.2,2.2,0.1,3.2-0.4
		c1.4-0.7,2.3-2.1,2.7-3.6C128,107,128,104.7,127.9,102.5z M207.1,111.3c-2.2,2.7-6,4-9.4,3.1c-2.7-0.6-4.9-2.6-6.1-5.1
		c-1.2-2.5-1.3-5.3-0.8-7.9c0.7-3.9,3.9-7.4,7.9-7.8c2.1-0.2,4.4,0.2,6.2,1.4c2.4,1.5,3.9,4.2,4.3,7
		C209.7,105.3,209.2,108.8,207.1,111.3z M204.6,98.5c-0.6-1.5-2-2.9-3.7-3.1c-0.9-0.1-1.8-0.1-2.6,0.2c-1.8,0.7-2.9,2.5-3.3,4.4
		c-0.6,2.5-0.6,5.1-0.2,7.6c0.3,1.8,0.9,3.6,2.3,4.8c1.2,1,3,1.3,4.5,0.7c1.4-0.5,2.5-1.8,3-3.1c0.6-1.5,0.8-3.1,0.8-4.8
		C205.5,102.8,205.5,100.5,204.6,98.5z"/>
</g>
</svg>
