<?xml version="1.0" encoding="utf-8"?>
<!-- Generator: Adobe Illustrator 20.0.0, SVG Export Plug-In . SVG Version: 6.00 Build 0)  -->
<svg version="1.1" id="notes" xmlns="http://www.w3.org/2000/svg" xmlns:xlink="http://www.w3.org/1999/xlink" x="0px" y="0px"
	 viewBox="0 0 138.2 42.2" style="enable-background:new 0 0 138.2 42.2;" xml:space="preserve">
<style type="text/css">
	.st0{fill:#A7A9AC;}
	.st1{fill:none;}
	.st2{fill:#A8A8A8;}
</style>
<g>
	<path class="st0" d="M18.7,16.1c0-1.6,1.3-2.9,2.9-2.9c1.6,0,2.9,1.3,2.9,2.9V18h2.3v-1.9c0-2.9-2.3-5.2-5.2-5.2
		c-2.9,0-5.2,2.3-5.2,5.2V18h2.3V16.1z"/>
	<path class="st0" d="M26.8,19.3H16.3c-1.1,0-2.1,0.9-2.1,2.1v6.4c0,1.1,0.9,2.1,2.1,2.1h10.5c1.1,0,2.1-0.9,2.1-2.1v-6.4
		C28.8,20.2,27.9,19.3,26.8,19.3z M25,22L22,26.4c-0.4,0.7-0.7,0.8-0.9,0.8c-0.3,0-0.5-0.1-0.6-0.3l-1.6-2.6c-0.2-0.3-0.1-0.8,0.3-1
		c0.4-0.2,0.8-0.1,1,0.3l0.9,1.6l2.6-3.8c0.2-0.3,0.6-0.5,1-0.3C25,21.2,25.2,21.6,25,22z"/>
</g>
<path class="st0" d="M49.7,15.8c-0.4,0.3-0.5,0.7-0.5,1.2c0,0.5,0.2,0.9,0.7,1.2c0.4,0.3,1.5,0.6,3,1c1.6,0.4,2.8,1,3.7,1.8
	c0.9,0.8,1.3,1.9,1.3,3.4s-0.6,2.7-1.7,3.7c-1.1,0.9-2.6,1.4-4.4,1.4c-2.7,0-5-1-7.2-3l2.2-2.7c1.8,1.6,3.5,2.4,5,2.4
	c0.7,0,1.2-0.1,1.6-0.4c0.4-0.3,0.6-0.7,0.6-1.2c0-0.5-0.2-0.9-0.6-1.2c-0.4-0.3-1.2-0.6-2.5-0.9c-2-0.5-3.4-1.1-4.3-1.8
	c-0.9-0.7-1.4-1.9-1.4-3.5s0.6-2.8,1.7-3.7c1.1-0.9,2.6-1.3,4.3-1.3c1.1,0,2.2,0.2,3.4,0.6c1.1,0.4,2.1,0.9,2.9,1.6L55.6,17
	c-1.5-1.1-3-1.7-4.5-1.7C50.5,15.4,50,15.5,49.7,15.8z"/>
<path class="st0" d="M65,15.8c-0.4,0.3-0.5,0.7-0.5,1.2c0,0.5,0.2,0.9,0.7,1.2c0.4,0.3,1.5,0.6,3,1c1.6,0.4,2.8,1,3.7,1.8
	c0.9,0.8,1.3,1.9,1.3,3.4s-0.6,2.7-1.7,3.7c-1.1,0.9-2.6,1.4-4.4,1.4c-2.7,0-5-1-7.2-3l2.2-2.7c1.8,1.6,3.5,2.4,5,2.4
	c0.7,0,1.2-0.1,1.6-0.4c0.4-0.3,0.6-0.7,0.6-1.2c0-0.5-0.2-0.9-0.6-1.2c-0.4-0.3-1.2-0.6-2.5-0.9c-2-0.5-3.4-1.1-4.3-1.8
	c-0.9-0.7-1.4-1.9-1.4-3.5s0.6-2.8,1.7-3.7c1.1-0.9,2.6-1.3,4.3-1.3c1.1,0,2.2,0.2,3.4,0.6c1.1,0.4,2.1,0.9,2.9,1.6L71,17
	c-1.5-1.1-3-1.7-4.5-1.7C65.8,15.4,65.3,15.5,65,15.8z"/>
<path class="st0" d="M76.3,29.2V12.5h3.7v13.4h7.1v3.3H76.3z"/>
<g>
	<path class="st0" d="M93.3,18.7c-0.2,0.1-0.2,0.3-0.2,0.5c0,0.2,0.1,0.4,0.3,0.5c0.2,0.1,0.7,0.3,1.4,0.5c0.7,0.2,1.3,0.4,1.7,0.8
		c0.4,0.4,0.6,0.9,0.6,1.6s-0.3,1.2-0.8,1.7c-0.5,0.4-1.2,0.6-2,0.6c-1.2,0-2.3-0.4-3.3-1.3l1-1.2c0.8,0.7,1.6,1.1,2.3,1.1
		c0.3,0,0.6-0.1,0.7-0.2c0.2-0.1,0.3-0.3,0.3-0.5s-0.1-0.4-0.3-0.5c-0.2-0.1-0.6-0.3-1.1-0.4c-0.9-0.2-1.5-0.5-1.9-0.8
		c-0.4-0.3-0.6-0.9-0.6-1.6s0.3-1.3,0.8-1.7c0.5-0.4,1.2-0.6,1.9-0.6c0.5,0,1,0.1,1.5,0.3s0.9,0.4,1.3,0.7l-0.9,1.2
		c-0.7-0.5-1.3-0.8-2-0.8C93.7,18.5,93.5,18.6,93.3,18.7z"/>
	<path class="st0" d="M104,17.2v1.5h-3.8v1.6h3.4v1.4h-3.4v1.6h3.9v1.5h-5.6v-7.6H104z"/>
	<path class="st0" d="M109.1,23.3c0.8,0,1.5-0.3,2-1l1.1,1.1c-0.9,1-1.9,1.5-3.1,1.5s-2.1-0.4-2.9-1.1c-0.8-0.7-1.1-1.7-1.1-2.8
		c0-1.1,0.4-2.1,1.2-2.8c0.8-0.8,1.7-1.1,2.8-1.1c1.2,0,2.3,0.5,3.1,1.4l-1.1,1.2c-0.5-0.7-1.2-1-2-1c-0.6,0-1.2,0.2-1.6,0.6
		c-0.5,0.4-0.7,1-0.7,1.7s0.2,1.3,0.6,1.7C108,23.1,108.5,23.3,109.1,23.3z"/>
	<path class="st0" d="M115.6,22.8c0.3,0.4,0.7,0.5,1.1,0.5c0.5,0,0.9-0.2,1.1-0.5c0.3-0.4,0.4-0.8,0.4-1.4v-4.2h1.7v4.3
		c0,1.1-0.3,1.9-0.9,2.5c-0.6,0.6-1.4,0.9-2.3,0.9s-1.7-0.3-2.3-0.9c-0.6-0.6-0.9-1.4-0.9-2.5v-4.3h1.7v4.2
		C115.2,22,115.3,22.5,115.6,22.8z"/>
	<path class="st0" d="M127.9,19.7c0,1.2-0.5,2-1.4,2.4l1.9,2.7h-2.1l-1.7-2.4h-1.2v2.4h-1.7v-7.6h2.9c1.2,0,2,0.2,2.5,0.6
		C127.7,18.2,127.9,18.8,127.9,19.7z M125.9,20.6c0.2-0.2,0.3-0.5,0.3-0.9c0-0.4-0.1-0.7-0.3-0.8c-0.2-0.2-0.6-0.2-1.1-0.2h-1.3v2.3
		h1.2C125.3,20.9,125.7,20.8,125.9,20.6z"/>
	<path class="st0" d="M135.1,17.2v1.5h-3.8v1.6h3.4v1.4h-3.4v1.6h3.9v1.5h-5.6v-7.6H135.1z"/>
</g>
<rect x="91.1" y="28.1" class="st0" width="44.1" height="1.8"/>
<rect x="91.1" y="12.5" class="st0" width="44.1" height="1.8"/>
<g>
	<path class="st1" d="M8.9,14.1L8,13.5L8.3,13c0.3-0.5,0.4-1-0.3-1.4c-0.7-0.4-1.1,0-1.4,0.5l-0.6,1l2.5,1.5L8.9,14.1z M7.7,13
		l-0.2,0.3l-0.7-0.4L7,12.5c0.3-0.4,0.4-0.5,0.6-0.3C8,12.4,8,12.5,7.7,13z"/>
	<polygon class="st1" points="5.8,20.3 5.4,19 5,20.3 3.7,20.3 4.7,21 4.3,22.3 5.4,21.5 6.5,22.3 6.1,21 7.1,20.3 	"/>
	<path class="st1" d="M25.6,6.9c0.9,0.2,1.3-0.1,1.5-0.7l-0.6-0.2c-0.1,0.4-0.4,0.4-0.8,0.3c-0.5-0.1-0.6-0.5-0.5-1.1
		c0.2-0.8,0.5-1,1-0.9c0.5,0.1,0.5,0.3,0.5,0.6l0.6,0.2c0.1-0.7-0.3-1.1-1-1.3c-0.9-0.2-1.4,0.1-1.7,1.1C24.5,6.2,24.8,6.7,25.6,6.9
		z"/>
	<polygon class="st1" points="17.3,4.5 17.9,6.9 18.5,6.7 17.9,4.4 18.8,4.2 18.6,3.7 16.3,4.3 16.5,4.8 	"/>
	<path class="st1" d="M14.8,8.3c0.6-0.3,1.1-0.9,0.5-2c-0.6-1.1-1.4-1-2-0.6c-0.6,0.3-1.1,0.9-0.5,2C13.4,8.7,14.1,8.6,14.8,8.3z
		 M13.5,6c0.5-0.3,0.8-0.2,1.2,0.5c0.5,0.8,0.2,1.1-0.2,1.3c-0.5,0.3-0.8,0.3-1.2-0.5C12.9,6.6,13,6.3,13.5,6z"/>
	<polygon class="st1" points="29.3,8.4 30.5,6.3 31.3,6.8 31.5,6.3 29.5,5.1 29.2,5.6 30,6 28.8,8.1 	"/>
	<path class="st1" d="M11.1,11l-0.8-0.8l0.4-0.4l1.3,0.3l0.5-0.5l-1.4-0.3c0.2-0.3,0.2-0.6-0.2-1C10.3,7.7,10,8,9.5,8.5L8.6,9.4
		l2.1,2.1L11.1,11z M9.4,9.3l0.4-0.4c0.4-0.4,0.5-0.4,0.7-0.2c0.3,0.3,0.2,0.4-0.2,0.8L9.9,9.8L9.4,9.3z"/>
	<polygon class="st1" points="23,5.9 21.4,5.9 21.4,5.1 22.9,5.1 22.9,4.6 21.4,4.6 21.4,3.9 23,4 23,3.5 20.8,3.4 20.8,6.4 23,6.4 
			"/>
	<polygon class="st1" points="39.6,20.2 38.3,20.2 37.9,19 37.5,20.2 36.1,20.2 37.2,21 36.8,22.3 37.9,21.5 38.9,22.3 38.5,21 	"/>
	<path class="st1" d="M36.9,12L36.3,11l-2.5,1.5l0.6,1c0.5,0.8,1.1,0.8,1.9,0.3C37.2,13.3,37.4,12.8,36.9,12z M34.8,13.2l-0.3-0.5
		l1.7-1l0.2,0.4c0.4,0.6,0.3,0.8-0.4,1.2C35.4,13.7,35.1,13.7,34.8,13.2z"/>
	<polygon class="st1" points="32.8,11.3 33.2,10.9 32,9.8 32.5,9.2 33.6,10.2 33.9,9.9 32.9,8.9 33.3,8.4 34.5,9.5 34.8,9.1 
		33.2,7.6 31.2,9.7 	"/>
	<polygon class="st1" points="26.3,37.9 25.5,35.3 25,35.5 25.8,38.5 27.7,38 27.5,37.5 	"/>
	<circle class="st1" cx="21.6" cy="21" r="13.5"/>
	<path class="st2" d="M7.7,12.2C7.4,12,7.3,12.1,7,12.5l-0.2,0.4l0.7,0.4L7.7,13C8,12.5,8,12.4,7.7,12.2z"/>
	<path class="st2" d="M14.5,7.8c0.4-0.2,0.6-0.4,0.2-1.3C14.3,5.9,14,5.8,13.5,6c-0.5,0.3-0.6,0.6-0.2,1.3C13.7,8.1,14,8.1,14.5,7.8
		z"/>
	<path class="st2" d="M10.5,8.7c-0.2-0.2-0.3-0.2-0.7,0.2L9.4,9.3l0.5,0.6l0.4-0.4C10.7,9.1,10.8,9,10.5,8.7z"/>
	<path class="st2" d="M21.6,2.1C11.2,2.1,2.7,10.6,2.7,21c0,10.4,8.5,18.9,18.9,18.9c10.4,0,18.9-8.5,18.9-18.9
		C40.5,10.6,32.1,2.1,21.6,2.1z M34.8,9.1l-0.4,0.4l-1.1-1.1l-0.4,0.5l1,1l-0.4,0.4l-1-1L32,9.8l1.2,1.1l-0.4,0.4l-1.6-1.6l2-2.1
		L34.8,9.1z M29.2,5.6l0.3-0.4l2.1,1.2l-0.3,0.4l-0.8-0.4l-1.2,2.1l-0.5-0.3L30,6L29.2,5.6z M24.7,5.1c0.3-1,0.8-1.4,1.7-1.1
		c0.7,0.2,1,0.6,1,1.3l-0.6-0.2c0-0.3,0-0.5-0.5-0.6c-0.5-0.1-0.8,0.1-1,0.9c-0.2,0.6-0.1,1,0.5,1.1c0.4,0.1,0.6,0,0.8-0.3l0.6,0.2
		c-0.2,0.5-0.6,0.9-1.5,0.7C24.8,6.7,24.5,6.2,24.7,5.1z M20.8,3.4l2.2,0L23,4l-1.6,0l0,0.6l1.4,0l0,0.5l-1.4,0l0,0.8l1.6,0l0,0.5
		l-2.2,0L20.8,3.4z M18.6,3.7l0.1,0.5l-0.9,0.2l0.6,2.3l-0.6,0.1l-0.6-2.3l-0.9,0.2l-0.1-0.5L18.6,3.7z M13.3,5.6
		c0.6-0.3,1.4-0.5,2,0.6c0.6,1.1,0.1,1.7-0.5,2c-0.7,0.4-1.4,0.4-2-0.7C12.1,6.4,12.7,5.9,13.3,5.6z M9.5,8.5C10,8,10.3,7.7,11,8.3
		c0.4,0.4,0.4,0.7,0.2,1l1.4,0.3L12,10.1l-1.3-0.3l-0.4,0.4l0.8,0.8l-0.4,0.4L8.6,9.4L9.5,8.5z M6.6,12.2c0.3-0.5,0.6-1,1.4-0.5
		c0.7,0.4,0.6,0.9,0.3,1.4L8,13.5l0.9,0.5l-0.3,0.5l-2.5-1.5L6.6,12.2z M6.5,22.3l-1.1-0.8l-1.1,0.8L4.7,21l-1.1-0.8H5L5.4,19
		l0.4,1.3h1.3L6.1,21L6.5,22.3z M18.5,36c-0.1-0.1-0.3-0.2-0.6-0.3c-0.4-0.1-0.6,0-0.6,0.2c-0.1,0.2,0.1,0.4,0.4,0.7
		c0.5,0.4,0.7,0.7,0.5,1.1c-0.1,0.5-0.6,0.8-1.4,0.6c-0.3-0.1-0.6-0.3-0.8-0.4l0.3-0.4c0.2,0.2,0.4,0.3,0.7,0.4
		c0.4,0.1,0.6,0,0.7-0.3c0.1-0.2-0.1-0.4-0.4-0.7c-0.5-0.3-0.7-0.7-0.6-1.1c0.1-0.5,0.7-0.8,1.3-0.6c0.3,0.1,0.6,0.2,0.7,0.4
		L18.5,36z M21.7,39c-0.3,0-0.7-0.1-0.9-0.2l0.1-0.5c0.2,0.1,0.5,0.2,0.8,0.2c0.4,0,0.6-0.2,0.6-0.4c0-0.2-0.2-0.4-0.6-0.5
		c-0.5-0.2-0.9-0.5-0.9-0.9c0-0.5,0.4-0.9,1.1-0.9c0.3,0,0.6,0.1,0.8,0.1l-0.1,0.5c-0.1-0.1-0.3-0.1-0.6-0.1c-0.4,0-0.5,0.2-0.5,0.4
		c0,0.2,0.2,0.4,0.6,0.5c0.6,0.2,0.8,0.5,0.8,0.9C22.9,38.5,22.5,39,21.7,39z M25.8,38.5L25,35.5l0.6-0.2l0.7,2.6l1.3-0.4l0.1,0.5
		L25.8,38.5z M21.6,34.5c-7.5,0-13.5-6.1-13.5-13.5c0-7.5,6.1-13.5,13.5-13.5c7.5,0,13.5,6.1,13.5,13.5
		C35.2,28.5,29.1,34.5,21.6,34.5z M34.4,13.5l-0.6-1l2.5-1.5l0.6,1.1c0.5,0.8,0.3,1.3-0.6,1.8C35.5,14.4,34.9,14.3,34.4,13.5z
		 M37.9,21.5l-1.1,0.8l0.4-1.3l-1.1-0.8h1.3l0.4-1.3l0.4,1.3h1.3L38.5,21l0.4,1.3L37.9,21.5z"/>
	<path class="st2" d="M36.4,12.2l-0.2-0.4l-1.7,1l0.3,0.5c0.3,0.5,0.6,0.5,1.2,0.1C36.7,12.9,36.8,12.8,36.4,12.2z"/>
</g>
</svg>
